<svg width="580" height="243" viewBox="0 0 580 243" fill="none" xmlns="http://www.w3.org/2000/svg">
<g clip-path="url(#clip0_30_4)">
<path d="M0 0H579.016V242.016H0V0Z" fill="#C30712"/>
<mask id="mask0_30_4" style="mask-type:luminance" maskUnits="userSpaceOnUse" x="0" y="0" width="580" height="243">
<path d="M0 0H580V242.667H0V0Z" fill="white"/>
</mask>
<g mask="url(#mask0_30_4)">
<path d="M257.401 93.2707C260.651 82.0933 288.86 79.0573 284.697 89.88C277.265 109.255 275.396 128.271 276.328 135.505C276.787 139.073 278.584 138.703 281.109 137.14C289.511 131.927 303.245 113.036 308.323 104.38C312.803 96.7653 331.849 103.344 331.917 113.797C331.973 122.489 335.38 156.047 349.251 156.047C367.88 156.047 373.333 107.307 362.969 82.828C358.443 72.136 381.625 63.7293 385.079 72.6146C389.989 85.188 399.364 98.7653 412.579 107.651C420.464 88.224 437.74 71.552 459.693 71.552C477.984 71.552 493.297 87.7506 484.421 110.36C478.656 125.052 463.453 134.953 444.516 134.953C440.817 134.953 437.197 134.677 433.697 134.167C434.307 147.109 442.787 153.688 455.489 153.688C475.688 153.688 494.084 138.041 501.76 129.817C506.489 124.755 513.792 135.631 507.276 144.917C501.771 152.74 479.115 172.875 450.063 172.875C420.864 172.875 405.473 153.197 408.073 125.921C398.907 121.26 391.656 115.536 387.145 110.693C387.407 130.427 380.125 179.068 347.584 179.068C323.891 179.068 312.167 155.5 308.661 134.453C300.803 145.453 285.593 165.588 273.073 165.588C257.145 165.588 250.751 153.193 250.787 134.527C250.817 121.948 254.552 103.099 257.401 93.2707ZM436.073 116.875C438.703 117.271 441.421 117.469 444.213 117.469C458.437 117.469 465.469 108.328 467.12 102.88C469.104 96.3067 466.568 89.1613 459.724 89.1613C451.609 89.1613 440.875 99.812 436.073 116.875ZM126.323 69.1613C139.489 69.1613 148.292 74.6453 151.932 79.1453C155.688 83.792 147.688 98.6253 140.823 93.4786C137.541 91.0266 132.115 89.2133 126.969 89.2133C114.969 89.2133 99.6773 103.584 97.2346 124.693C95.2599 141.771 104.901 153.073 123.036 153.073C134.62 153.073 147.047 149.937 158.792 145.052C156.833 138.855 156.131 131.557 157.052 123.136C160.599 90.5986 186.64 72.7653 204.364 72.7653C223.88 72.7653 239.708 89.5786 227.26 113.421C221.781 123.921 207.396 137.203 189.36 148.547C192.973 152.396 198.027 154.781 204.656 154.781C221.588 154.781 232.016 143.849 235.995 139.563C241.667 133.489 248.453 143.688 244.027 152.079C240.213 159.297 225.781 173.193 202.432 173.193C189.213 173.193 176.489 169.052 167.823 160.245C151.385 167.833 133.812 172.875 118.011 172.875C81.9693 172.875 64.4786 150.713 70.2133 119.855C76.2813 87.2453 106.312 69.1613 126.323 69.1613ZM182.479 132.317C195.697 123.469 205.797 113.297 209.203 105.057C213.708 94.1453 204.401 87.9067 195.615 94.7347C185.792 102.364 180.776 118.636 182.479 132.317Z" fill="white"/>
</g>
</g>
<defs>
<clipPath id="clip0_30_4">
<rect width="579.014" height="242.016" fill="white"/>
</clipPath>
</defs>
</svg>
